<svg xmlns="http://www.w3.org/2000/svg" xmlns:xlink="http://www.w3.org/1999/xlink" version="1.1" x="0px" y="0px" viewBox="0 0 100 100" enable-background="new 0 0 100 100" xml:space="preserve"><g><path fill="white" d="M58.359,35.78c1.386,0,2.558-0.425,3.515-1.172c0.094-0.085,0.166-0.189,0.254-0.28   c1.141-1.021,1.877-2.494,1.877-4.193c0-3.088-2.557-5.644-5.646-5.644c-1.326,0-2.537,0.49-3.506,1.273   c-0.108,0.074-0.226,0.139-0.328,0.217c-0.273,0.274-0.523,0.577-0.747,0.902c-0.661,0.924-1.062,2.044-1.062,3.252   C52.717,33.331,55.272,35.78,58.359,35.78z"></path><path fill="white" d="M69.06,36.108c-0.051,0.034-0.105,0.059-0.155,0.098c-0.106,0.107-0.213,0.215-0.319,0.428   c-0.261,0.369-0.536,0.694-0.813,1.01c-0.12,0.137-0.241,0.271-0.364,0.399c-0.257,0.266-0.517,0.518-0.782,0.74   c-0.106,0.089-0.216,0.164-0.323,0.247c-0.239,0.182-0.48,0.353-0.723,0.501c-0.072,0.044-0.143,0.091-0.215,0.132   c-0.346,0.194-0.694,0.36-1.042,0.485c-0.017,0.017-0.031,0.022-0.048,0.035c-2.34,0.893-4.942,0.512-7.66-0.993h0.041   c-0.107-0.106-0.321-0.212-0.428-0.212c-0.319-0.213-1.704-1.066-2.023-1.173c-2.357-1.414-4.713-2.186-6.989-2.403   c-0.074-0.007-0.147-0.006-0.221-0.012c-1.246-0.099-2.469-0.043-3.652,0.179c0,0.022-0.02,0.03-0.028,0.045   c-2.153,0.448-4.183,1.457-6.017,3.002c-0.114,0.09-0.232,0.161-0.346,0.256c-0.164,0.164-0.336,0.352-0.504,0.522   c-0.272,0.264-0.539,0.541-0.801,0.829c-0.093,0.1-0.179,0.2-0.271,0.303c-0.448,0.516-0.886,1.055-1.301,1.646   c-2.13,2.983,2.877,5.859,4.901,2.877c2.661-3.728,5.964-4.794,9.586-3.622c-1.811,3.302-3.515,6.496-5.753,10.971   c-2.344,4.579-7.349,8.201-12.25,5.431c-3.513-2.13-6.603,2.983-3.193,5.007c6.709,3.834,14.485,1.491,18.425-3.515   c0.106,0,0.319,0.105,0.425,0.105c3.302,1.173,7.563,4.154,8.842,5.221c1.277,1.064,3.514,6.496,4.792,9.265   c0.109,0.212,0.233,0.398,0.368,0.565c0.093,0.117,0.197,0.21,0.301,0.306c0.049,0.045,0.095,0.095,0.145,0.135   c0.103,0.082,0.212,0.148,0.322,0.211c0.066,0.038,0.132,0.076,0.2,0.108c0.098,0.045,0.198,0.084,0.3,0.117   c0.098,0.032,0.197,0.057,0.297,0.078c0.08,0.016,0.158,0.032,0.239,0.042c0.139,0.016,0.277,0.02,0.416,0.016   c0.052-0.001,0.103,0.002,0.154-0.002c0.162-0.012,0.321-0.039,0.479-0.076c0.04-0.009,0.081-0.012,0.122-0.023   c0.016-0.004,0.031-0.012,0.047-0.017c0.385-0.107,0.756-0.275,1.083-0.501c0.047-0.047,0.076-0.11,0.12-0.161   c0.837-0.732,1.257-1.903,0.627-3.248c-1.493-3.088-4.048-9.266-5.965-10.863c-1.17-0.859-3.14-2.342-5.114-3.62l0.001-0.001   c-0.022-0.015-0.048-0.029-0.07-0.044c-0.699-0.451-1.398-0.875-2.061-1.234c1.811-3.408,3.622-6.71,5.539-10.012   c0.541,0.161,1.079,0.28,1.615,0.379c0.081,0.015,0.161,0.03,0.242,0.043c1.101,0.184,2.188,0.236,3.256,0.159   c0.023-0.002,0.047-0.003,0.07-0.005c2.199-0.172,4.304-0.895,6.239-2.162c0.018-0.012,0.036-0.022,0.054-0.034   c0.449-0.297,0.89-0.62,1.32-0.975c0.03-0.024,0.062-0.043,0.092-0.068c0.032-0.029,0.059-0.063,0.091-0.092   c1.111-0.948,2.154-2.083,3.105-3.423C75.469,36.73,71.354,34.049,69.06,36.108z"></path><path fill-rule="evenodd" fill="#FF6600" clip-rule="evenodd" d="M49.946,5C25.13,5,5,25.236,5,50.052C5,74.763,25.13,95,49.946,95   C74.763,95,95,74.763,95,50.052C95,25.236,74.763,5,49.946,5z M53.778,26.883c0.224-0.325,0.474-0.628,0.747-0.902   c0.102-0.079,0.219-0.144,0.328-0.217c0.969-0.782,2.18-1.273,3.506-1.273c3.09,0,5.646,2.556,5.646,5.644   c0,1.699-0.735,3.172-1.877,4.193c-0.088,0.091-0.161,0.195-0.254,0.28c-0.957,0.746-2.13,1.172-3.515,1.172   c-3.088,0-5.643-2.449-5.643-5.645C52.717,28.927,53.117,27.807,53.778,26.883z M73.485,39.508c-0.95,1.34-1.994,2.476-3.105,3.423   c-0.032,0.029-0.059,0.063-0.091,0.092c-0.03,0.025-0.062,0.043-0.092,0.068c-0.43,0.355-0.87,0.678-1.32,0.975   c-0.018,0.012-0.036,0.023-0.054,0.034c-1.935,1.266-4.04,1.99-6.239,2.162c-0.023,0.002-0.047,0.003-0.07,0.005   c-1.067,0.077-2.155,0.025-3.256-0.159c-0.081-0.013-0.161-0.028-0.242-0.043c-0.536-0.099-1.074-0.218-1.615-0.379   c-1.917,3.302-3.728,6.603-5.539,10.012c0.663,0.359,1.362,0.783,2.061,1.234c0.022,0.015,0.048,0.029,0.07,0.044l-0.001,0.001   c1.974,1.277,3.944,2.761,5.114,3.62c1.917,1.597,4.472,7.775,5.965,10.863c0.63,1.344,0.21,2.516-0.627,3.248   c-0.044,0.051-0.073,0.113-0.12,0.161c-0.327,0.227-0.697,0.395-1.083,0.501c-0.016,0.005-0.031,0.012-0.047,0.017   c-0.04,0.01-0.081,0.014-0.122,0.023c-0.158,0.037-0.317,0.064-0.479,0.076c-0.052,0.004-0.103,0.001-0.154,0.002   c-0.139,0.003-0.278,0-0.416-0.016c-0.081-0.009-0.159-0.026-0.239-0.042c-0.1-0.021-0.199-0.046-0.297-0.078   c-0.102-0.033-0.201-0.071-0.3-0.117c-0.068-0.032-0.134-0.07-0.2-0.108c-0.111-0.063-0.219-0.13-0.322-0.211   c-0.051-0.04-0.097-0.09-0.145-0.135c-0.104-0.095-0.208-0.189-0.301-0.306c-0.135-0.166-0.259-0.353-0.368-0.565   c-1.279-2.768-3.515-8.201-4.792-9.265c-1.279-1.067-5.539-4.048-8.842-5.221c-0.106,0-0.319-0.105-0.425-0.105   c-3.941,5.006-11.716,7.349-18.425,3.515c-3.409-2.024-0.319-7.137,3.193-5.007c4.901,2.77,9.906-0.852,12.25-5.431   c2.237-4.475,3.941-7.669,5.753-10.971c-3.622-1.172-6.925-0.106-9.586,3.622c-2.024,2.981-7.03,0.105-4.901-2.877   c0.415-0.591,0.853-1.13,1.301-1.646c0.092-0.103,0.178-0.202,0.271-0.303c0.262-0.289,0.528-0.566,0.801-0.829   c0.168-0.17,0.341-0.359,0.504-0.522c0.114-0.095,0.231-0.166,0.346-0.256c1.834-1.544,3.864-2.553,6.017-3.002   c0.008-0.015,0.028-0.022,0.028-0.045c1.183-0.221,2.406-0.278,3.652-0.179c0.074,0.006,0.147,0.005,0.221,0.012   c2.276,0.217,4.632,0.989,6.989,2.403c0.319,0.106,1.704,0.959,2.023,1.173c0.107,0,0.321,0.106,0.428,0.212h-0.041   c2.718,1.505,5.32,1.886,7.66,0.993c0.017-0.013,0.03-0.017,0.048-0.035c0.348-0.124,0.696-0.291,1.042-0.485   c0.072-0.042,0.143-0.088,0.215-0.132c0.243-0.147,0.484-0.319,0.723-0.501c0.108-0.083,0.217-0.158,0.323-0.247   c0.266-0.222,0.525-0.474,0.782-0.74c0.123-0.127,0.244-0.262,0.364-0.399c0.277-0.316,0.552-0.641,0.813-1.01   c0.106-0.213,0.213-0.321,0.319-0.428c0.05-0.038,0.104-0.063,0.155-0.098C71.354,34.049,75.469,36.73,73.485,39.508z"></path></g></svg>